<?xml version="1.0" encoding="utf-8"?>
<!-- Generator: Adobe Illustrator 22.0.1, SVG Export Plug-In . SVG Version: 6.00 Build 0)  -->
<svg version="1.1" id="Layer_1" xmlns="http://www.w3.org/2000/svg" xmlns:xlink="http://www.w3.org/1999/xlink" x="0px" y="0px"
	 viewBox="0 0 100 107" style="enable-background:new 0 0 100 107;" xml:space="preserve">
<style type="text/css">
	.st0{fill:#1399D3;}
</style>
<g>
	<g>
		<g>
			<g>
				<g>
					<path class="st0" d="M96.3,28H4c-0.9,0-1.5-0.6-1.5-1.5V12.3c0-0.9,0.6-1.5,1.5-1.5h92.2c0.9,0,1.5,0.6,1.5,1.5v14.1
						C97.7,27.4,97.1,28,96.3,28z M5.5,25h89.3V13.8H5.5V25z"/>
				</g>
				<g>
					<path class="st0" d="M96.3,94.6H4c-0.9,0-1.5-0.6-1.5-1.5V26.5C2.5,25.6,3.1,25,4,25h92.2c0.9,0,1.5,0.6,1.5,1.5v66.6
						C97.7,93.9,97.1,94.6,96.3,94.6z M5.5,91.6h89.3V28H5.5V91.6z"/>
				</g>
			</g>
		</g>
		<g>
			<g>
				<g>
					<path class="st0" d="M17.1,19c-0.9,0-1.5-0.6-1.5-1.5V7.1c0-0.9,0.6-1.5,1.5-1.5c0.9,0,1.5,0.6,1.5,1.5v10.4
						C18.6,18.4,18,19,17.1,19z"/>
				</g>
				<g>
					<path class="st0" d="M29,19c-0.9,0-1.5-0.6-1.5-1.5V7.1c0-0.9,0.6-1.5,1.5-1.5c0.9,0,1.5,0.6,1.5,1.5v10.4
						C30.5,18.4,29.9,19,29,19z"/>
				</g>
			</g>
			<g>
				<g>
					<path class="st0" d="M71.3,19c-0.9,0-1.5-0.6-1.5-1.5V7.1c0-0.9,0.6-1.5,1.5-1.5s1.5,0.6,1.5,1.5v10.4C72.7,18.4,72,19,71.3,19
						z"/>
				</g>
				<g>
					<path class="st0" d="M83.2,19c-0.9,0-1.5-0.6-1.5-1.5V7.1c0-0.9,0.6-1.5,1.5-1.5s1.5,0.6,1.5,1.5v10.4
						C84.6,18.4,83.9,19,83.2,19z"/>
				</g>
			</g>
		</g>
	</g>
	<g>
		<g>
			<g>
				<path class="st0" d="M18.9,47.9c-3.3,0-6-2.7-6-6c0-3.3,2.7-6,6-6s6,2.7,6,6C24.8,45.2,22.2,47.9,18.9,47.9z M18.9,39
					c-1.6,0-3,1.3-3,3c0,1.6,1.3,3,3,3s3-1.3,3-3C21.9,40.3,20.5,39,18.9,39z"/>
			</g>
			<g>
				<path class="st0" d="M39.7,47.9c-3.3,0-6-2.7-6-6c0-3.3,2.7-6,6-6c3.3,0,6,2.7,6,6C45.7,45.2,43,47.9,39.7,47.9z M39.7,39
					c-1.6,0-3,1.3-3,3c0,1.6,1.3,3,3,3c1.6,0,3-1.3,3-3C42.7,40.3,41.4,39,39.7,39z"/>
			</g>
			<g>
				<path class="st0" d="M60.5,47.9c-3.3,0-6-2.7-6-6c0-3.3,2.7-6,6-6c3.3,0,6,2.7,6,6C66.5,45.2,63.8,47.9,60.5,47.9z M60.5,39
					c-1.6,0-3,1.3-3,3c0,1.6,1.3,3,3,3s3-1.3,3-3C63.5,40.3,62.2,39,60.5,39z"/>
			</g>
			<g>
				<path class="st0" d="M81.4,47.9c-3.3,0-6-2.7-6-6c0-3.3,2.7-6,6-6s6,2.7,6,6C87.3,45.2,84.6,47.9,81.4,47.9z M81.4,39
					c-1.6,0-3,1.3-3,3c0,1.6,1.3,3,3,3c1.6,0,3-1.3,3-3C84.3,40.3,83,39,81.4,39z"/>
			</g>
		</g>
		<g>
			<g>
				<path class="st0" d="M18.9,65.8c-3.3,0-6-2.7-6-6c0-3.3,2.7-6,6-6s6,2.7,6,6C24.8,63.1,22.2,65.8,18.9,65.8z M18.9,56.8
					c-1.6,0-3,1.3-3,3s1.3,3,3,3s3-1.3,3-3S20.5,56.8,18.9,56.8z"/>
			</g>
			<g>
				<path class="st0" d="M39.7,65.8c-3.3,0-6-2.7-6-6c0-3.3,2.7-6,6-6c3.3,0,6,2.7,6,6C45.7,63.1,43,65.8,39.7,65.8z M39.7,56.8
					c-1.6,0-3,1.3-3,3s1.3,3,3,3c1.6,0,3-1.3,3-3S41.4,56.8,39.7,56.8z"/>
			</g>
			<g>
				<path class="st0" d="M60.5,65.8c-3.3,0-6-2.7-6-6c0-3.3,2.7-6,6-6c3.3,0,6,2.7,6,6C66.5,63.1,63.8,65.8,60.5,65.8z M60.5,56.8
					c-1.6,0-3,1.3-3,3s1.3,3,3,3s3-1.3,3-3S62.2,56.8,60.5,56.8z"/>
			</g>
			<g>
				<path class="st0" d="M81.4,65.8c-3.3,0-6-2.7-6-6c0-3.3,2.7-6,6-6s6,2.7,6,6C87.3,63.1,84.6,65.8,81.4,65.8z M81.4,56.8
					c-1.6,0-3,1.3-3,3s1.3,3,3,3c1.6,0,3-1.3,3-3S83,56.8,81.4,56.8z"/>
			</g>
		</g>
		<g>
			<g>
				<path class="st0" d="M18.9,83.6c-3.3,0-6-2.7-6-6c0-3.3,2.7-6,6-6s6,2.7,6,6C24.8,80.9,22.2,83.6,18.9,83.6z M18.9,74.7
					c-1.6,0-3,1.3-3,3c0,1.6,1.3,3,3,3s3-1.3,3-3C21.9,76,20.5,74.7,18.9,74.7z"/>
			</g>
			<g>
				<path class="st0" d="M39.7,83.6c-3.3,0-6-2.7-6-6c0-3.3,2.7-6,6-6c3.3,0,6,2.7,6,6C45.7,80.9,43,83.6,39.7,83.6z M39.7,74.7
					c-1.6,0-3,1.3-3,3c0,1.6,1.3,3,3,3c1.6,0,3-1.3,3-3C42.7,76,41.4,74.7,39.7,74.7z"/>
			</g>
		</g>
	</g>
</g>
</svg>
