<?xml version="1.0" encoding="utf-8"?>
<!-- Generator: Adobe Illustrator 22.0.1, SVG Export Plug-In . SVG Version: 6.00 Build 0)  -->
<svg version="1.1" id="Layer_1" xmlns="http://www.w3.org/2000/svg" xmlns:xlink="http://www.w3.org/1999/xlink" x="0px" y="0px"
	 viewBox="0 0 70.9 70.9" style="enable-background:new 0 0 70.9 70.9;" xml:space="preserve">
<style type="text/css">
	.st0{display:none;}
	.st1{display:inline;}
	.st2{fill:#132561;}
	.st3{display:inline;fill:#132561;}
	.st4{display:none;fill:#132561;}
</style>
<g class="st0">
	<g class="st1">
		<path class="st2" d="M56.4,45.4h-22c-1.7,0-3-1.3-3-3v-22c0-1.7,1.3-3,3-3h22c1.7,0,3,1.3,3,3v22C59.4,44.1,58.1,45.4,56.4,45.4z
			 M34.4,19.4c-0.6,0-1,0.4-1,1v22c0,0.6,0.4,1,1,1h22c0.6,0,1-0.4,1-1v-22c0-0.6-0.4-1-1-1C56.4,19.4,34.4,19.4,34.4,19.4z"/>
	</g>
	<g class="st1">
		<path class="st2" d="M45.4,41.4c-5.5,0-10-4.5-10-10s4.5-10,10-10s10,4.5,10,10S50.9,41.4,45.4,41.4z M45.4,23.4c-4.4,0-8,3.6-8,8
			s3.6,8,8,8s8-3.6,8-8S49.8,23.4,45.4,23.4z"/>
	</g>
	<g class="st1">
		<path class="st2" d="M41.4,34.4c-0.6,0-1-0.4-1-1v-2c0-0.6,0.4-1,1-1s1,0.4,1,1v2C42.4,34,42,34.4,41.4,34.4z"/>
	</g>
	<g class="st1">
		<path class="st2" d="M49.4,34.4c-0.6,0-1-0.4-1-1v-2c0-0.6,0.4-1,1-1s1,0.4,1,1v2C50.4,34,50,34.4,49.4,34.4z"/>
	</g>
	<g class="st1">
		<path class="st2" d="M46.4,28.4h-2c-0.6,0-1-0.4-1-1s0.4-1,1-1h2c0.6,0,1,0.4,1,1S47,28.4,46.4,28.4z"/>
	</g>
	<g class="st1">
		<path class="st2" d="M19.7,40.6h-0.8c-4.1,0-7.5-3.4-7.5-7.5v-7.3c0-0.6,0.4-1,1-1h13.8c0.6,0,1,0.4,1,1v7.3
			C27.2,37.3,23.8,40.6,19.7,40.6z M13.4,26.8v6.3c0,3,2.5,5.5,5.5,5.5h0.8c3,0,5.5-2.5,5.5-5.5v-6.3C25.2,26.8,13.4,26.8,13.4,26.8
			z"/>
	</g>
	<g class="st1">
		<path class="st2" d="M13.5,26.8c-0.6,0-1-0.4-1-1v-4.2c0-0.6,0.4-1,1-1s1,0.4,1,1v4.2C14.5,26.4,14,26.8,13.5,26.8z"/>
	</g>
	<g class="st1">
		<path class="st2" d="M25.2,26.8c-0.6,0-1-0.4-1-1v-4.2c0-0.6,0.4-1,1-1s1,0.4,1,1v4.2C26.2,26.4,25.7,26.8,25.2,26.8z"/>
	</g>
	<g class="st1">
		<path class="st2" d="M19.3,26.8c-0.6,0-1-0.4-1-1v-7.4c0-0.6,0.4-1,1-1s1,0.4,1,1v7.4C20.3,26.4,19.9,26.8,19.3,26.8z"/>
	</g>
	<g class="st1">
		<path class="st2" d="M46.4,53.4H28.3c-0.3,0-6.6-0.4-9.4-5.9c-1.8-3.5-1-6.9-0.6-8.2c0.2-0.5,0.7-0.8,1.3-0.6
			c0.5,0.2,0.8,0.7,0.6,1.3c-0.3,1.1-1,3.8,0.5,6.7c2.3,4.4,7.6,4.8,7.7,4.8h18c0.6,0,1,0.4,1,1S47,53.4,46.4,53.4z"/>
	</g>
</g>
<g class="st0">
	<path class="st3" d="M36.8,27.5h-3.9v15.6c-2.3,0.8-3.9,3-3.9,5.5c0,3.2,2.6,5.9,5.9,5.9s5.9-2.6,5.9-5.9c0-2.5-1.6-4.7-3.9-5.5
		L36.8,27.5L36.8,27.5z"/>
	<path class="st3" d="M45.5,23.5v-1.7h-5.6V18c0-2.8-2.3-5.1-5.1-5.1s-5.1,2.3-5.1,5.1v22.7c-2.7,1.7-4.4,4.7-4.4,7.9
		c0,5.2,4.2,9.4,9.4,9.4s9.4-4.2,9.4-9.4c0-3.2-1.6-6.2-4.4-7.9v-5.6h5.6v-1.7h-5.5v-4.1h5.6v-1.7h-5.6v-4
		C39.9,23.5,45.5,23.5,45.5,23.5z M42.7,48.6c0,4.4-3.5,7.9-7.9,7.9s-7.9-3.5-7.9-7.9c0-2.8,1.5-5.4,4-6.8l0.4-0.2V17.9
		c0-1.9,1.6-3.5,3.5-3.5s3.5,1.6,3.5,3.5v23.6l0.4,0.2C41.1,43.2,42.7,45.8,42.7,48.6z"/>
</g>
<g class="st0">
	<path class="st3" d="M50.4,15.4h-30c-0.6,0-1,0.4-1,1v38c0,0.6,0.4,1,1,1h30c0.6,0,1-0.4,1-1v-38C51.4,15.8,51,15.4,50.4,15.4z
		 M49.4,17.4v6h-28v-6H49.4z M21.4,53.4v-28h28v28H21.4z"/>
	<path class="st3" d="M24.4,21.4h2c0.6,0,1-0.4,1-1s-0.4-1-1-1h-2c-0.6,0-1,0.4-1,1S23.8,21.4,24.4,21.4z"/>
	<path class="st3" d="M30.4,21.4h2c0.6,0,1-0.4,1-1s-0.4-1-1-1h-2c-0.6,0-1,0.4-1,1S29.8,21.4,30.4,21.4z"/>
	<path class="st3" d="M35.4,29.4c-5.5,0-10,4.5-10,10l0,0l0,0c0,5.5,4.5,10,10,10s10-4.5,10-10l0,0l0,0C45.4,33.9,41,29.4,35.4,29.4
		L35.4,29.4z M35.4,31.4c4.1,0,7.6,3.2,7.9,7.3c-3.1,1-5.4,0.4-7.6-0.3c-2.2-0.7-4.8-1.4-8.1-0.5C28.2,34.2,31.5,31.4,35.4,31.4z
		 M35.4,47.4c-4.1,0-7.6-3.2-7.9-7.3c3.1-1,5.3-0.4,7.6,0.3c1.6,0.5,3.3,0.9,5,0.9c1.1,0,2.1-0.2,3.2-0.5
		C42.6,44.6,39.3,47.4,35.4,47.4z"/>
</g>
<path class="st4" d="M42.5,26.1c2.6,0,4.7-2.1,4.7-4.7s-2.1-4.7-4.7-4.7s-4.7,2.1-4.7,4.7S39.9,26.1,42.5,26.1z M42.5,19
	c1.4,0,2.3,0.9,2.3,2.3s-0.9,2.3-2.3,2.3c-1.4,0-2.3-0.9-2.3-2.3C40.1,20,41.1,19,42.5,19z M23.7,30.8c0-2.6-2.1-4.7-4.7-4.7
	s-4.7,2.1-4.7,4.7s2.1,4.7,4.7,4.7S23.7,33.3,23.7,30.8z M19,33.1c-1.4,0-2.3-0.9-2.3-2.3s0.9-2.3,2.3-2.3s2.3,0.9,2.3,2.3
	C21.3,32.2,20.5,33.1,19,33.1z M51.8,26.1c-2.6,0-4.7,2.1-4.7,4.7s2.1,4.7,4.7,4.7c2.6,0,4.7-2.1,4.7-4.7S54.4,26.1,51.8,26.1z
	 M51.8,33.1c-1.4,0-2.3-0.9-2.3-2.3s0.9-2.3,2.3-2.3c1.4,0,2.3,0.9,2.3,2.3C54.1,32.2,53.2,33.1,51.8,33.1z M28.4,26.1
	c2.6,0,4.7-2.1,4.7-4.7s-2.1-4.7-4.7-4.7s-4.7,2.1-4.7,4.7S25.8,26.1,28.4,26.1z M28.4,19c1.4,0,2.3,0.9,2.3,2.3s-0.9,2.3-2.3,2.3
	s-2.3-0.9-2.3-2.3C26.1,20,27,19,28.4,19z M35.4,30.8c2.8,0,5.6,1.9,6.6,4.4c0.5,1.4,1.6,2.8,3,3.5c2.3,1.4,3.7,4.2,3.3,7
	c-0.5,2.8-2.6,5.1-5.6,5.9c-0.5,0-0.9,0.2-1.4,0.2c-0.9,0-2.1-0.2-3-0.7c-1.9-0.9-4-0.9-5.9,0c-0.7,0.5-1.9,0.7-2.8,0.7
	c-0.5,0-0.9,0-1.4-0.2c-2.8-0.7-5.1-3-5.6-5.9c-0.5-2.8,0.9-5.6,3.3-7c1.4-0.7,2.3-2.1,3-3.5C29.8,32.6,32.6,30.8,35.4,30.8
	 M35.4,28.4c-4,0-7.3,2.3-8.7,6.1c-0.5,0.9-1.2,1.9-1.9,2.3c-3.3,1.9-4.9,5.6-4.4,9.4c0.7,4.7,4.7,8,9.4,8c1.4,0,2.8-0.2,4-0.9
	c1.2-0.5,2.6-0.5,3.7,0c1.2,0.7,2.6,0.9,4,0.9c4.7,0,8.7-3.5,9.4-8c0.5-3.7-1.2-7.3-4.4-9.4c-0.9-0.5-1.6-1.4-1.9-2.3
	C42.7,30.8,39.4,28.4,35.4,28.4z"/>
<g class="st0">
	<g class="st1">
		<g>
			<path class="st2" d="M31.6,43c-0.6,0-1-0.4-1-1V18.9c0-1.6-1.3-2.8-2.8-2.8h-3.1c-0.6,0-1-0.4-1-1s0.4-1,1-1h3.1
				c2.7,0,4.8,2.2,4.8,4.8V42C32.6,42.6,32.2,43,31.6,43z"/>
		</g>
		<g>
			<path class="st2" d="M46.1,40.5c-0.6,0-1-0.4-1-1V18.9c0-1.6-1.3-2.8-2.8-2.8h-3.1c-0.6,0-1-0.4-1-1s0.4-1,1-1h3.1
				c2.7,0,4.8,2.2,4.8,4.8v20.7C47.1,40.1,46.7,40.5,46.1,40.5z"/>
		</g>
		<g>
			<path class="st2" d="M46.1,22.5H31.6c-0.6,0-1-0.4-1-1s0.4-1,1-1h14.5c0.6,0,1,0.4,1,1S46.7,22.5,46.1,22.5z"/>
		</g>
		<g>
			<path class="st2" d="M46.1,28.9H31.6c-0.6,0-1-0.4-1-1s0.4-1,1-1h14.5c0.6,0,1,0.4,1,1S46.7,28.9,46.1,28.9z"/>
		</g>
		<g>
			<path class="st2" d="M46.1,35.3H31.6c-0.6,0-1-0.4-1-1s0.4-1,1-1h14.5c0.6,0,1,0.4,1,1C47.1,34.9,46.7,35.3,46.1,35.3z"/>
		</g>
	</g>
	<g class="st1">
		<path class="st2" d="M35.4,44c-1.8,0-3.5-0.6-5.2-1.7c-2.5-1.7-5.5-1.7-8.1,0c-3.2,2.2-7.1,2.2-10.3,0c-0.4-0.3-0.5-0.9-0.2-1.4
			s0.9-0.6,1.4-0.3c2.5,1.7,5.5,1.7,8.1,0c3.2-2.2,7.1-2.2,10.3,0c2.5,1.7,5.5,1.7,8.1,0c3.2-2.2,7.1-2.2,10.3,0
			c2.5,1.7,5.5,1.7,8.1,0c0.5-0.3,1.1-0.2,1.4,0.3c0.3,0.5,0.2,1.1-0.3,1.4c-3.2,2.2-7.1,2.2-10.3,0c-2.5-1.7-5.5-1.7-8.1,0
			C38.9,43.4,37.2,44,35.4,44z"/>
	</g>
	<g class="st1">
		<path class="st2" d="M35.4,50.4c-1.8,0-3.5-0.6-5.2-1.7c-2.5-1.7-5.5-1.7-8.1,0c-3.2,2.2-7.1,2.2-10.3,0c-0.4-0.3-0.5-0.9-0.2-1.4
			s0.9-0.6,1.4-0.3c2.5,1.7,5.5,1.7,8.1,0c3.2-2.2,7.1-2.2,10.3,0c2.5,1.7,5.5,1.7,8.1,0c3.2-2.2,7.1-2.2,10.3,0
			c2.5,1.7,5.5,1.7,8.1,0c0.5-0.3,1.1-0.2,1.4,0.3c0.3,0.5,0.2,1.1-0.3,1.4c-3.2,2.2-7.1,2.2-10.3,0c-2.5-1.7-5.5-1.7-8.1,0
			C38.9,49.8,37.2,50.4,35.4,50.4z"/>
	</g>
	<g class="st1">
		<path class="st2" d="M35.4,56.8c-1.8,0-3.5-0.6-5.2-1.7c-2.5-1.7-5.5-1.7-8.1,0c-3.2,2.2-7.1,2.2-10.3,0c-0.5-0.3-0.6-0.9-0.3-1.4
			s0.9-0.6,1.4-0.3c2.5,1.7,5.5,1.7,8.1,0c3.2-2.2,7.1-2.2,10.3,0c2.5,1.7,5.5,1.7,8.1,0c3.2-2.2,7.1-2.2,10.3,0
			c2.5,1.7,5.5,1.7,8.1,0c0.5-0.3,1.1-0.2,1.4,0.3c0.3,0.5,0.2,1.1-0.3,1.4c-3.2,2.2-7.1,2.2-10.3,0c-2.5-1.7-5.5-1.7-8.1,0
			C38.9,56.2,37.2,56.8,35.4,56.8z"/>
	</g>
</g>
<g>
	<path class="st2" d="M60.3,30c-0.1-0.2-0.3-0.4-0.6-0.5l-3-0.9l0.6-1.9c0.2-0.5-0.1-1.1-0.7-1.3l0,0l-30-8.8
		c-0.5-0.2-1.1,0.1-1.3,0.7l0,0L22,27.8c-0.1,0.3-0.1,0.5,0.1,0.8c0.1,0.2,0.3,0.4,0.6,0.5l12.1,3.5l-11.5,9v-1.2c0-0.6-0.4-1-1-1
		h-5c-0.6,0-1,0.4-1,1v2h-3.9v-9c0-0.6-0.4-1-1-1c-0.6,0-1,0.4-1,1v20c0,0.6,0.4,1,1,1c0.6,0,1-0.4,1-1v-9h4v2c0,0.6,0.4,1,1,1h5
		c0.6,0,1-0.4,1-1v-2.2h0.1l13.7-10.8l15.5,4.5c0.1,0,0.2,0,0.3,0c0.5,0,0.9-0.3,1-0.7l0.6-1.9l3,0.9c0.1,0,0.2,0,0.3,0
		c0.5,0,0.9-0.3,1-0.7l1.5-4.7C60.5,30.5,60.4,30.2,60.3,30z M21.4,45.4h-3v-4h3V45.4z M52.3,35.7l-28-8.2l2.7-8.6l28,8.2L52.3,35.7
		z M57.2,34l-2-0.6l0.9-2.9l2.1,0.6L57.2,34z"/>
</g>
</svg>
