<?xml version="1.0" encoding="utf-8"?>
<!-- Generator: Adobe Illustrator 22.0.1, SVG Export Plug-In . SVG Version: 6.00 Build 0)  -->
<svg version="1.1" id="Layer_1" xmlns="http://www.w3.org/2000/svg" xmlns:xlink="http://www.w3.org/1999/xlink" x="0px" y="0px"
	 viewBox="0 0 70.9 70.9" style="enable-background:new 0 0 70.9 70.9;" xml:space="preserve">
<style type="text/css">
	.st0{fill:#132561;}
</style>
<g>
	<g>
		<path class="st0" d="M56.4,45.4h-22c-1.7,0-3-1.3-3-3v-22c0-1.7,1.3-3,3-3h22c1.7,0,3,1.3,3,3v22C59.4,44.1,58.1,45.4,56.4,45.4z
			 M34.4,19.4c-0.6,0-1,0.4-1,1v22c0,0.6,0.4,1,1,1h22c0.6,0,1-0.4,1-1v-22c0-0.6-0.4-1-1-1H34.4z"/>
	</g>
	<g>
		<path class="st0" d="M45.4,41.4c-5.5,0-10-4.5-10-10s4.5-10,10-10s10,4.5,10,10S50.9,41.4,45.4,41.4z M45.4,23.4c-4.4,0-8,3.6-8,8
			s3.6,8,8,8s8-3.6,8-8S49.8,23.4,45.4,23.4z"/>
	</g>
	<g>
		<path class="st0" d="M41.4,34.4c-0.6,0-1-0.4-1-1v-2c0-0.6,0.4-1,1-1c0.6,0,1,0.4,1,1v2C42.4,34,42,34.4,41.4,34.4z"/>
	</g>
	<g>
		<path class="st0" d="M49.4,34.4c-0.6,0-1-0.4-1-1v-2c0-0.6,0.4-1,1-1s1,0.4,1,1v2C50.4,34,50,34.4,49.4,34.4z"/>
	</g>
	<g>
		<path class="st0" d="M46.4,28.4h-2c-0.6,0-1-0.4-1-1s0.4-1,1-1h2c0.6,0,1,0.4,1,1S47,28.4,46.4,28.4z"/>
	</g>
	<g>
		<path class="st0" d="M19.7,40.6h-0.8c-4.1,0-7.5-3.4-7.5-7.5v-7.3c0-0.6,0.4-1,1-1h13.8c0.6,0,1,0.4,1,1v7.3
			C27.2,37.3,23.8,40.6,19.7,40.6z M13.4,26.8v6.3c0,3,2.5,5.5,5.5,5.5h0.8c3,0,5.5-2.5,5.5-5.5v-6.3C25.2,26.8,13.4,26.8,13.4,26.8
			z"/>
	</g>
	<g>
		<path class="st0" d="M13.5,26.8c-0.6,0-1-0.4-1-1v-4.2c0-0.6,0.4-1,1-1c0.6,0,1,0.4,1,1v4.2C14.5,26.4,14,26.8,13.5,26.8z"/>
	</g>
	<g>
		<path class="st0" d="M25.2,26.8c-0.6,0-1-0.4-1-1v-4.2c0-0.6,0.4-1,1-1c0.6,0,1,0.4,1,1v4.2C26.2,26.4,25.7,26.8,25.2,26.8z"/>
	</g>
	<g>
		<path class="st0" d="M19.3,26.8c-0.6,0-1-0.4-1-1v-7.4c0-0.6,0.4-1,1-1s1,0.4,1,1v7.4C20.3,26.4,19.9,26.8,19.3,26.8z"/>
	</g>
	<g>
		<path class="st0" d="M46.4,53.4H28.3c-0.3,0-6.6-0.4-9.4-5.9c-1.8-3.5-1-6.9-0.6-8.2c0.2-0.5,0.7-0.8,1.3-0.6
			c0.5,0.2,0.8,0.7,0.6,1.3c-0.3,1.1-1,3.8,0.5,6.7c2.3,4.4,7.6,4.8,7.7,4.8h18c0.6,0,1,0.4,1,1S47,53.4,46.4,53.4z"/>
	</g>
</g>
</svg>
