<?xml version="1.0" encoding="utf-8"?>
<!-- Generator: Adobe Illustrator 22.0.1, SVG Export Plug-In . SVG Version: 6.00 Build 0)  -->
<svg version="1.1" id="Layer_1" xmlns="http://www.w3.org/2000/svg" xmlns:xlink="http://www.w3.org/1999/xlink" x="0px" y="0px"
	 viewBox="0 0 100 107" style="enable-background:new 0 0 100 107;" xml:space="preserve">
<style type="text/css">
	.st0{fill:#1399D3;}
</style>
<g transform="translate(0,-952.36218)">
	<path class="st0" d="M50,958.4c-12.1,0-22,9.7-22,22c0,7.8,3.1,15.7,7.5,24H27c-0.1,0-0.1,0-0.2,0c-0.8,0.1-1.4,0.5-1.7,1.2l-15,38
		c-0.4,1,0.1,2.2,1.1,2.6c0.2,0.1,0.5,0.1,0.8,0.1h38h38c1.1,0,2-0.9,2-2c0-0.3,0-0.5-0.1-0.8l-15-38c-0.3-0.8-1.1-1.3-1.9-1.2h-8.5
		c4.3-8.3,7.5-16.2,7.5-24C72,968,62.1,958.4,50,958.4z M50,962.4c10,0,18,7.8,18,18c0,11.7-9.1,25.6-18,41.8
		c-8.9-16.3-18-30.1-18-41.8C32,970.2,40,962.4,50,962.4z M50,967.4c-5.5,0-10,4.5-10,10s4.5,10,10,10s10-4.5,10-10
		S55.5,967.4,50,967.4z M50,971.4c3.3,0,6,2.7,6,6s-2.7,6-6,6c-3.3,0-6-2.7-6-6S46.6,971.4,50,971.4z M37.6,1008.3
		c3.3,6,7.1,12.3,10.6,19c0.5,1,1.7,1.4,2.7,0.9c0.4-0.2,0.7-0.5,0.9-0.9c3.5-6.7,7.3-12.9,10.7-19c0.2,0,0.4,0.1,0.6,0.1h8.6
		l5.9,15H70c-0.1,0-0.1,0-0.2,0c-1.1,0.1-2,1-1.9,2.1s1,2,2.1,1.9h9.1l5.9,15H52v-7c0-1.1-0.9-2-2-2c-0.1,0-0.2,0-0.3,0
		c-1,0.1-1.8,1-1.8,2v7h-33l5.9-15H30c1.1,0,2-0.9,2-2s-0.9-2-2-2c0,0,0,0-0.1,0h-7.6l5.9-15H37
		C37.2,1008.4,37.4,1008.4,37.6,1008.3L37.6,1008.3z"/>
</g>
</svg>
