<?xml version="1.0" encoding="utf-8"?>
<!-- Generator: Adobe Illustrator 22.0.1, SVG Export Plug-In . SVG Version: 6.00 Build 0)  -->
<svg version="1.1" id="Layer_1" xmlns="http://www.w3.org/2000/svg" xmlns:xlink="http://www.w3.org/1999/xlink" x="0px" y="0px"
	 viewBox="0 0 496 101" style="enable-background:new 0 0 496 101;" xml:space="preserve">
<style type="text/css">
	.st0{fill:#9B8B49;}
	.st1{fill:#112363;}
	.st2{fill:none;stroke:#112363;stroke-width:3;stroke-miterlimit:10;}
</style>
<g>
	<path class="st0" d="M99.4,92.7V78.9h0.8v13h5.3v0.8C105.5,92.7,99.4,92.7,99.4,92.7z"/>
	<path class="st0" d="M129,78.9h0.8v9.9c-0.1,1.1-0.6,2-1.3,2.7c-0.9,0.9-1.9,1.3-3.2,1.3c-1.2,0-2.3-0.4-3.2-1.3s-1.3-1.9-1.3-3.2
		v-9.4h0.8v9.4c0,1,0.4,1.9,1.1,2.6s1.6,1.1,2.6,1.1s1.9-0.4,2.6-1.1c0.7-0.7,1.1-1.6,1.1-2.6V78.9z"/>
	<path class="st0" d="M144.8,92.7l4.4-7.6l-3.6-6.2h0.9l3.1,5.5l3.2-5.5h0.9l-3.6,6.2l4.4,7.6h-0.9l-3.9-6.8l-3.9,6.8H144.8z"/>
	<path class="st0" d="M177.7,78.9h0.8v9.9c-0.1,1.1-0.6,2-1.3,2.7c-0.9,0.9-1.9,1.3-3.2,1.3c-1.2,0-2.3-0.4-3.2-1.3
		s-1.3-1.9-1.3-3.2v-9.4h0.8v9.4c0,1,0.4,1.9,1.1,2.6S173,92,174,92s1.9-0.4,2.6-1.1s1.1-1.6,1.1-2.6L177.7,78.9L177.7,78.9z"/>
	<path class="st0" d="M197.7,87.9h-2.6v4.8h-0.8V78.9h3.6c1.1,0.1,2,0.6,2.7,1.3c0.9,0.9,1.3,1.9,1.3,3.2c0,1.2-0.4,2.3-1.3,3.2
		c-0.6,0.6-1.3,1-2.1,1.2l3.2,4.9h-1L197.7,87.9z M195.2,79.6V87h2.3c1,0,1.9-0.4,2.6-1.1s1.1-1.6,1.1-2.6s-0.4-1.9-1.1-2.6
		s-1.6-1.1-2.6-1.1C197.5,79.6,195.2,79.6,195.2,79.6z"/>
	<path class="st0" d="M221.4,87.1l-4.7-8.2h0.9l4.2,7.4l4.2-7.4h0.9l-4.7,8.2v5.6h-0.8L221.4,87.1L221.4,87.1z"/>
	<path class="st0" d="M265.6,78.9l5,13.8h-0.8l-2.2-6.1h-4.8l-2.2,6.1h-0.8l5.1-13.8H265.6z M267.3,85.8l-2.1-5.8l-2.1,5.8H267.3z"
		/>
	<path class="st0" d="M286.2,87.9v4.8h-0.8V78.9h3.6c1.1,0.1,2,0.6,2.7,1.3c0.9,0.9,1.3,1.9,1.3,3.2c0,1.2-0.4,2.3-1.3,3.2
		s-1.9,1.3-3.2,1.3H286.2z M286.2,79.6V87h2.3c1,0,1.9-0.4,2.6-1.1s1.1-1.6,1.1-2.6s-0.4-1.9-1.1-2.6s-1.6-1.1-2.6-1.1
		C288.5,79.6,286.2,79.6,286.2,79.6z"/>
	<path class="st0" d="M313.3,78.9l5,13.8h-0.8l-2.2-6.1h-4.8l-2.2,6.1h-0.8l5.1-13.8H313.3z M315,85.8l-2.1-5.8l-2.1,5.8H315z"/>
	<path class="st0" d="M336.6,87.9H334v4.8h-0.8V78.9h3.6c1.1,0.1,2,0.6,2.7,1.3c0.9,0.9,1.3,1.9,1.3,3.2c0,1.2-0.4,2.3-1.3,3.2
		c-0.6,0.6-1.3,1-2.1,1.2l3.2,4.9h-1L336.6,87.9z M334,79.6V87h2.3c1,0,1.9-0.4,2.6-1.1s1.1-1.6,1.1-2.6s-0.4-1.9-1.1-2.6
		s-1.6-1.1-2.6-1.1C336.3,79.6,334,79.6,334,79.6z"/>
	<path class="st0" d="M359.8,79.6v13H359v-13h-3.5v-0.8h7.8v0.8H359.8z"/>
	<path class="st0" d="M390.5,78.9v13.8h-0.8v-13l-5.3,7l-5.4-7v13h-0.8V78.9h1.1l5,6.5l5-6.5H390.5z"/>
	<path class="st0" d="M413.2,78.9v0.8H407v5.7h6.1v0.8H407v5.7h6.1v0.8h-6.9V78.9H413.2z"/>
	<path class="st0" d="M430,78.9l9.2,12.9V78.9h0.8v13.8h-1.2l-9-12.6v12.6H429V78.9H430z"/>
	<path class="st0" d="M459.4,79.6v13h-0.8v-13h-3.5v-0.8h7.8v0.8H459.4z"/>
	<path class="st0" d="M481.8,85c-1-0.3-1.8-0.8-2.3-1.3s-0.9-1.3-0.9-2.1c0-0.8,0.3-1.5,0.9-2.1s1.3-0.9,2.1-0.9
		c0.8,0,1.5,0.3,2.1,0.9c0.3,0.3,0.5,0.6,0.7,1l-0.7,0.3c-0.1-0.3-0.3-0.5-0.5-0.8c-0.4-0.4-0.9-0.6-1.5-0.6s-1.1,0.2-1.5,0.6
		s-0.6,0.9-0.6,1.5s0.2,1.1,0.6,1.5s0.9,0.7,1.6,1.1c1.1,0.4,2,0.9,2.8,1.7c0.8,0.8,1.2,1.8,1.2,2.9s-0.4,2.1-1.2,2.9
		s-1.8,1.2-2.9,1.2s-2.1-0.4-2.9-1.2c-0.6-0.6-1-1.4-1.2-2.2l0.7-0.3c0.1,0.7,0.4,1.4,1,2c0.7,0.7,1.4,1,2.4,1s1.7-0.3,2.4-1
		s1-1.4,1-2.4c0-0.9-0.3-1.7-1-2.3C483.3,85.8,482.6,85.4,481.8,85z"/>
</g>
<g>
	<path class="st0" d="M20.1,10.8l1.5-0.9l0.3,0.5l-1.6,1l1.6,1l-0.3,0.5L20.1,12v1.5h-0.6V12L18,12.9l-0.3-0.5l1.6-1l-1.6-1L18,9.9
		l1.5,0.9V9.2h0.6V10.8z"/>
	<path class="st0" d="M32.1,10.8l1.5-0.9l0.3,0.5l-1.6,1l1.6,1l-0.3,0.5L32.1,12v1.5h-0.6V12L30,12.9l-0.3-0.5l1.6-1l-1.6-1L30,9.9
		l1.5,0.9V9.2h0.6V10.8z"/>
	<path class="st0" d="M44.1,10.8l1.5-0.9l0.3,0.5l-1.6,1l1.6,1l-0.3,0.5L44.1,12v1.5h-0.6V12L42,12.9l-0.3-0.5l1.6-1l-1.6-1L42,9.9
		l1.5,0.9V9.2h0.6V10.8z"/>
	<path class="st0" d="M56.1,10.8l1.5-0.9l0.3,0.5l-1.6,1l1.6,1l-0.3,0.5L56.1,12v1.5h-0.6V12L54,12.9l-0.3-0.5l1.6-1l-1.6-1L54,9.9
		l1.5,0.9V9.2h0.6V10.8z"/>
	<path class="st0" d="M68.1,10.8l1.5-0.9l0.3,0.5l-1.6,1l1.6,1l-0.3,0.5L68.1,12v1.5h-0.6V12L66,12.9l-0.3-0.5l1.6-1l-1.6-1L66,9.9
		l1.5,0.9V9.2h0.6V10.8z"/>
</g>
<g>
	<path class="st1" d="M134,61.9c0.2-0.1,0.5-0.1,0.7,0s0.3,0.4,0.2,0.7c-0.1,0.5-0.4,0.9-0.8,1.4c-0.4,0.5-0.9,0.9-1.5,1.2
		s-1.3,0.7-2,0.9c-0.8,0.2-1.6,0.3-2.5,0.3c-0.7,0-1.5-0.1-2.2-0.2s-1.4-0.4-2.1-0.7c-0.7-0.3-1.3-0.8-1.8-1.4s-1-1.3-1.3-2.1
		c-0.3-0.7-0.6-1.5-0.7-2.5c-0.2-0.9-0.3-2-0.4-3.2c-0.2-2.3-0.5-4.2-0.9-5.5c-0.4-1.4-0.8-2.4-1.3-3.1c-0.5-0.7-1.1-1.1-1.6-1.3
		c-0.6-0.2-1.1-0.3-1.7-0.3c-0.7,0-1.2,0.1-1.4,0.4s-0.4,0.7-0.4,1.3v12c0,0.9,0.2,1.7,0.6,2.3s0.9,1,1.4,1.4
		c0.5,0.3,1.1,0.6,1.6,0.7s0.9,0.2,1.1,0.3c0.2,0,0.3,0.1,0.4,0.2s0.1,0.2,0.1,0.3c0,0.1-0.1,0.2-0.2,0.3c-0.1,0.1-0.3,0.1-0.5,0.1
		H97.6c-0.2,0-0.4,0-0.5-0.1s-0.2-0.2-0.2-0.3c0-0.1,0-0.2,0.1-0.3c0.1-0.1,0.2-0.2,0.4-0.2c0.2,0,0.6-0.1,1.1-0.3
		c0.5-0.1,1-0.4,1.6-0.7c0.5-0.3,1-0.8,1.4-1.4c0.4-0.6,0.6-1.3,0.6-2.3V30.7c0-0.9-0.2-1.7-0.6-2.3c-0.4-0.6-0.9-1.1-1.4-1.4
		s-1.1-0.6-1.6-0.7s-0.9-0.2-1.1-0.3c-0.2,0-0.3-0.1-0.4-0.2s-0.1-0.2-0.1-0.3c0-0.1,0.1-0.2,0.2-0.3c0.1-0.1,0.2-0.1,0.5-0.1H116
		c1.1,0,2.3,0,3.4,0s2.2,0.1,3.2,0.3s2.1,0.5,3.1,0.9s1.9,1,2.9,1.8c0.7,0.7,1.3,1.4,1.8,2.4c0.5,0.9,0.8,1.9,1,2.9s0.2,2,0.1,3.1
		c-0.1,1-0.4,2-0.8,2.9c-0.7,1.6-1.7,2.8-2.8,3.7s-2.5,1.5-4.2,2c-0.2,0-0.2,0.1-0.3,0.2c0,0.1,0,0.1,0.2,0.2c0.2,0,0.4,0.1,0.8,0.2
		c0.4,0.1,0.9,0.3,1.4,0.5s1,0.5,1.5,0.9s0.9,0.9,1.3,1.5c0.4,0.7,0.7,1.7,0.9,2.8s0.3,2.3,0.3,3.6c0.1,1.4,0.2,2.5,0.3,3.4
		s0.3,1.6,0.5,2.1c0.2,0.4,0.4,0.7,0.7,0.9s0.6,0.4,0.9,0.4c0.3,0.1,0.6,0.1,1,0.1C133.4,62,133.7,62,134,61.9z M112.8,44.6
		c0.5,0,1.1,0,1.7-0.1c0.6,0,1.3-0.2,1.9-0.3c0.6-0.2,1.2-0.5,1.8-0.9s1.1-1,1.6-1.7c0.4-0.8,0.8-1.7,1.1-2.8
		c0.3-1.1,0.4-2.5,0.4-4.2c0-1.4-0.1-2.6-0.3-3.6c-0.2-1-0.5-1.8-0.9-2.3c-0.4-0.6-0.9-1-1.5-1.3s-1.3-0.4-2-0.4s-1.3,0.1-1.8,0.3
		s-1,0.4-1.4,0.8s-0.7,0.9-0.9,1.4s-0.3,1.3-0.3,2.1V44C112.1,44.4,112.3,44.6,112.8,44.6z"/>
	<path class="st1" d="M169.6,64.8c0.2,0,0.3,0.1,0.3,0.2s0.1,0.2,0.1,0.3c0,0.1-0.1,0.2-0.2,0.3c-0.1,0.1-0.2,0.1-0.4,0.1h-10.9
		c-0.2,0-0.4,0-0.5-0.2c-0.1-0.1-0.2-0.3-0.2-0.5v-1.8c-0.8,0.8-1.9,1.6-3.3,2.2s-3,0.9-5,0.9c-1.6,0-3-0.2-4.1-0.5s-2-0.8-2.8-1.4
		c-0.7-0.6-1.3-1.3-1.7-2.1s-0.7-1.6-0.8-2.4c-0.2-0.8-0.3-1.7-0.3-2.5s0-1.6,0-2.3V43.4c0-0.8-0.2-1.4-0.5-1.9s-0.7-0.9-1.1-1.1
		c-0.4-0.3-0.8-0.5-1.2-0.6s-0.7-0.2-0.8-0.2c-0.2,0-0.3-0.1-0.3-0.2c-0.1-0.1-0.1-0.2-0.1-0.3s0.1-0.2,0.2-0.3
		c0.1-0.1,0.2-0.1,0.4-0.1h10.9c0.5,0,0.7,0.3,0.7,0.8V57c0,0.8,0.1,1.6,0.2,2.4c0.1,0.8,0.4,1.5,0.7,2.2c0.3,0.6,0.8,1.2,1.5,1.6
		c0.6,0.4,1.5,0.6,2.5,0.6c1.1,0,2-0.2,2.7-0.7c0.6-0.5,1.1-1.1,1.5-1.8c0.3-0.7,0.6-1.5,0.7-2.4c0.1-0.9,0.2-1.7,0.2-2.5v-13
		c0-0.8-0.2-1.4-0.5-1.9s-0.7-0.9-1.1-1.1c-0.4-0.3-0.8-0.5-1.2-0.6s-0.7-0.2-0.8-0.2c-0.2,0-0.3-0.1-0.3-0.2
		c-0.1-0.1-0.1-0.2-0.1-0.3s0.1-0.2,0.2-0.3c0.1-0.1,0.2-0.1,0.4-0.1h10.9c0.5,0,0.7,0.3,0.7,0.8V61c0,0.8,0.2,1.4,0.5,1.9
		s0.7,0.9,1.1,1.1c0.4,0.3,0.8,0.5,1.2,0.6C169.1,64.7,169.4,64.8,169.6,64.8z"/>
	<path class="st1" d="M177.4,60.8c0.1-0.1,0.3-0.3,0.5-0.6s0.5-0.6,0.7-0.9c0.3-0.3,0.6-0.7,0.9-1.1c0.3-0.4,0.6-0.8,0.9-1.2
		c0.7-0.9,1.5-1.9,2.3-3c-1-1.6-1.8-3.2-2.7-4.6c-0.4-0.6-0.7-1.2-1.1-1.8c-0.4-0.6-0.7-1.2-1-1.7s-0.6-1-0.9-1.4s-0.5-0.8-0.6-1
		c-0.4-0.5-0.7-1-1.1-1.4c-0.3-0.4-0.7-0.8-1-1.1c-0.4-0.3-0.7-0.6-1.2-0.8c-0.4-0.2-0.9-0.4-1.4-0.6c-0.2,0-0.3-0.1-0.3-0.2
		c-0.1-0.1-0.1-0.2-0.1-0.3s0.1-0.2,0.2-0.3s0.2-0.1,0.4-0.1h15.4c0.1,0,0.3,0,0.4,0.1c0.1,0.1,0.2,0.2,0.2,0.3s0,0.2-0.1,0.3
		s-0.2,0.2-0.4,0.2c-0.3,0.1-0.6,0.2-0.9,0.3c-0.3,0.1-0.6,0.3-0.8,0.6s-0.3,0.6-0.3,1.1c0,0.4,0.1,1,0.4,1.7
		c0.2,0.4,0.4,0.9,0.7,1.5c0.3,0.5,0.5,1,0.8,1.5s0.6,1.1,0.9,1.6c0.5-0.7,1-1.3,1.4-1.9c0.4-0.5,0.7-1,1.1-1.5
		c0.3-0.5,0.6-0.9,0.7-1.1c0.3-0.7,0.4-1.3,0.4-1.7c0-0.5-0.1-0.8-0.3-1.1s-0.5-0.5-0.8-0.6s-0.6-0.2-0.9-0.3
		c-0.2,0-0.3-0.1-0.4-0.2c-0.1-0.1-0.1-0.2-0.1-0.3s0.1-0.2,0.2-0.3s0.2-0.1,0.4-0.1h8.5c0.3,0,0.5,0.1,0.5,0.4
		c0,0.2-0.1,0.4-0.4,0.6c-0.9,0.4-1.6,0.9-2.3,1.5c-0.6,0.6-1.3,1.3-2.1,2.1c-0.1,0.1-0.3,0.3-0.5,0.6s-0.4,0.6-0.7,0.9
		s-0.5,0.7-0.8,1.1s-0.6,0.8-0.9,1.1c-0.7,0.9-1.4,1.8-2.2,2.8c1.1,1.8,2,3.5,2.9,5c0.4,0.7,0.8,1.3,1.2,2s0.8,1.2,1.1,1.8
		s0.6,1,0.9,1.5c0.3,0.4,0.4,0.7,0.6,0.9c0.7,1.1,1.4,1.9,2.2,2.6s1.6,1.1,2.6,1.4c0.2,0.1,0.3,0.1,0.3,0.2c0.1,0.1,0.1,0.2,0.1,0.3
		c0,0.1-0.1,0.2-0.2,0.3c-0.1,0.1-0.2,0.1-0.3,0.1h-15.8c-0.2,0-0.3,0-0.4-0.1c-0.1-0.1-0.1-0.2-0.2-0.3c0-0.1,0-0.2,0.1-0.3
		c0.1-0.1,0.2-0.2,0.4-0.2c0.3-0.1,0.6-0.2,1-0.3c0.3-0.1,0.6-0.3,0.8-0.6s0.4-0.6,0.4-1.1c0-0.4-0.1-1-0.3-1.7
		c-0.1-0.3-0.3-0.7-0.6-1.3s-0.6-1.2-0.9-1.7c-0.4-0.7-0.8-1.4-1.2-2.2c-0.6,0.8-1.2,1.5-1.6,2.2c-0.2,0.3-0.4,0.6-0.6,0.9
		s-0.4,0.6-0.6,0.9c-0.2,0.3-0.3,0.5-0.5,0.7c-0.1,0.2-0.2,0.4-0.3,0.5c-0.3,0.7-0.5,1.3-0.4,1.7c0,0.4,0.2,0.8,0.4,1.1
		s0.5,0.5,0.9,0.6s0.7,0.2,1,0.3c0.2,0,0.3,0.1,0.4,0.2c0.1,0.1,0.1,0.2,0.1,0.3c0,0.1-0.1,0.2-0.2,0.3c-0.1,0.1-0.2,0.1-0.4,0.1
		h-10c-0.3,0-0.5-0.1-0.5-0.4s0.1-0.4,0.4-0.6c1.1-0.4,2.1-0.9,3-1.5S176.5,61.7,177.4,60.8z"/>
	<path class="st1" d="M220.4,61.3c0.4-0.2,0.6-0.2,0.8,0.1c0.2,0.2,0.2,0.5,0,0.7c-0.4,0.6-0.8,1.2-1.4,1.8c-0.6,0.5-1.2,1-1.9,1.4
		s-1.5,0.7-2.3,0.9s-1.7,0.3-2.6,0.3c-1,0-2-0.1-3-0.4s-1.9-0.7-2.6-1.4c-0.8-0.7-1.4-1.6-1.9-2.7s-0.7-2.6-0.7-4.4v-17
		c0-0.2-0.1-0.2-0.2-0.2h-0.8c-0.5,0-0.8,0-0.9-0.1c-0.1-0.1-0.2-0.2-0.2-0.4c0-0.3,0.1-0.5,0.3-0.8s0.5-0.4,0.9-0.4h0.7
		c0.1,0,0.2-0.1,0.2-0.2v-7.2c0-0.4,0.2-0.7,0.5-0.8c0.5-0.1,1-0.2,1.6-0.4c0.6-0.2,1.1-0.4,1.7-0.6c0.6-0.2,1.2-0.5,1.7-0.8
		c0.6-0.3,1.1-0.6,1.6-0.9c0.2-0.1,0.4-0.1,0.6-0.1c0.2,0.1,0.3,0.3,0.3,0.6v10c0,0.1,0.1,0.2,0.2,0.2h5.6c0.5,0,0.8,0,0.9,0.1
		c0.1,0.1,0.2,0.2,0.2,0.4c0,0.3-0.1,0.5-0.4,0.8c-0.3,0.3-0.6,0.4-0.9,0.4H213c-0.1,0-0.2,0.1-0.2,0.2v18.5c0,0.5,0.1,1,0.3,1.4
		s0.4,0.8,0.8,1c0.3,0.3,0.7,0.5,1.1,0.6c0.4,0.1,0.8,0.2,1.2,0.2c0.9,0,1.7-0.1,2.4-0.4S220,61.5,220.4,61.3z"/>
	<path class="st1" d="M237.5,37.9c2.1,0,4,0.4,5.7,1.1c1.7,0.7,3.2,1.7,4.5,3c1.2,1.3,2.2,2.8,2.9,4.5s1.1,3.6,1.1,5.5
		c0,2-0.4,3.8-1.1,5.6c-0.8,1.7-1.8,3.3-3.1,4.6s-2.9,2.3-4.7,3.1s-3.7,1.1-5.8,1.1s-4-0.4-5.7-1.1s-3.2-1.7-4.5-3s-2.2-2.8-2.9-4.5
		s-1.1-3.6-1.1-5.5c0-2,0.4-3.8,1.1-5.6c0.8-1.8,1.8-3.3,3.1-4.6s2.9-2.3,4.7-3.1C233.5,38.3,235.4,37.9,237.5,37.9z M237.2,64.8
		c1,0,1.8-0.3,2.5-1s1.3-1.6,1.8-2.7c0.5-1.2,0.8-2.5,1.1-4s0.4-3.2,0.4-4.9s-0.1-3.4-0.4-4.9s-0.6-2.9-1.1-4s-1.1-2.1-1.8-2.7
		s-1.5-1-2.5-1s-1.8,0.3-2.5,1s-1.3,1.6-1.8,2.7c-0.5,1.2-0.8,2.5-1.1,4c-0.2,1.5-0.3,3.2-0.3,4.9s0.1,3.4,0.3,4.9s0.6,2.9,1.1,4
		c0.5,1.2,1.1,2.1,1.8,2.7C235.4,64.4,236.2,64.8,237.2,64.8z"/>
	<path class="st1" d="M287.2,64.8c0.2,0,0.3,0.1,0.3,0.2s0.1,0.2,0.1,0.3c0,0.1-0.1,0.2-0.2,0.3c-0.1,0.1-0.2,0.1-0.4,0.1h-3.5h-0.3
		h-7.6h-0.3H272c-0.2,0-0.3,0-0.4-0.1s-0.1-0.2-0.2-0.3c0-0.1,0-0.2,0.1-0.3s0.2-0.2,0.3-0.2c0.2,0,0.4-0.1,0.8-0.2s0.8-0.3,1.2-0.6
		c0.4-0.3,0.8-0.7,1.1-1.1c0.3-0.5,0.5-1.1,0.5-1.9V50v-0.2V48c0-0.8-0.1-1.7-0.2-2.6c-0.1-0.9-0.3-1.7-0.7-2.4
		c-0.4-0.7-0.9-1.3-1.5-1.8s-1.6-0.7-2.7-0.7c-1.2,0-2.1,0.2-2.7,0.7s-1.1,1-1.4,1.7s-0.5,1.4-0.6,2.2s-0.1,1.5-0.1,2.1V61
		c0,0.8,0.2,1.4,0.5,1.9s0.7,0.9,1.1,1.1c0.4,0.3,0.8,0.5,1.2,0.6c0.4,0.1,0.7,0.2,0.8,0.2c0.2,0,0.3,0.1,0.3,0.2s0.1,0.2,0.1,0.3
		c0,0.1-0.1,0.2-0.2,0.3c-0.1,0.1-0.2,0.1-0.4,0.1H254c-0.2,0-0.3,0-0.4-0.1c-0.1-0.1-0.1-0.2-0.2-0.3c0-0.1,0-0.2,0.1-0.3
		s0.2-0.2,0.3-0.2c0.2,0,0.4-0.1,0.8-0.2c0.4-0.1,0.8-0.3,1.2-0.6c0.4-0.3,0.8-0.7,1.1-1.1c0.3-0.5,0.5-1.1,0.5-1.9V44.3
		c0-0.3-0.1-0.4-0.4-0.5c0,0-0.2,0-0.4-0.1s-0.5-0.1-0.9-0.2c-0.3-0.1-0.6-0.2-0.9-0.2c-0.3-0.1-0.4-0.1-0.5-0.1
		c-0.3-0.1-0.4-0.2-0.4-0.4s0.1-0.4,0.4-0.4c0.8-0.2,1.6-0.4,2.5-0.7s1.8-0.7,2.7-1c0.9-0.4,1.8-0.8,2.7-1.3
		c0.9-0.5,1.6-0.9,2.3-1.4c0.2-0.1,0.4-0.2,0.6-0.2s0.3,0.2,0.3,0.5v2.6c0.4-0.4,0.9-0.7,1.4-1.1s1.1-0.7,1.8-0.9
		c0.7-0.3,1.4-0.5,2.2-0.6c0.8-0.2,1.7-0.2,2.7-0.2c1.6,0,3,0.2,4.1,0.5c1.1,0.4,2,0.8,2.8,1.4c0.7,0.6,1.3,1.3,1.7,2.1
		s0.7,1.6,0.8,2.4c0.2,0.8,0.3,1.7,0.3,2.5s0,1.6,0,2.3v0.2V61c0,0.8,0.2,1.4,0.5,1.9s0.7,0.9,1.1,1.1c0.4,0.3,0.8,0.5,1.2,0.6
		C286.7,64.7,287,64.8,287.2,64.8z"/>
	<path class="st1" d="M336.8,25.7V34c0,0.3-0.1,0.5-0.4,0.5s-0.5-0.1-0.6-0.4c-0.1-0.2-0.2-0.5-0.4-0.9c-0.2-0.4-0.5-0.9-0.8-1.5
		s-0.8-1.1-1.3-1.7s-1.1-1.1-1.8-1.6c-0.7-0.5-1.5-0.9-2.4-1.2c-0.9-0.3-1.8-0.5-2.9-0.5c-0.5,0-0.9,0.1-1.2,0.2
		c-0.3,0.2-0.6,0.4-0.8,0.6c-0.2,0.2-0.3,0.5-0.4,0.9s-0.1,0.7-0.1,1v30.4c0,0.9,0.2,1.7,0.6,2.3s0.9,1,1.4,1.4
		c0.5,0.3,1.1,0.6,1.6,0.7s0.9,0.2,1.1,0.3c0.2,0,0.3,0.1,0.4,0.2s0.1,0.2,0.1,0.3c0,0.1-0.1,0.2-0.2,0.3c-0.1,0.1-0.2,0.1-0.5,0.1
		h-19.1c-0.2,0-0.3,0-0.5-0.1c-0.1-0.1-0.2-0.2-0.2-0.3c0-0.1,0-0.2,0.1-0.3c0.1-0.1,0.2-0.2,0.4-0.2c0.2,0,0.6-0.1,1.1-0.3
		c0.5-0.1,1-0.4,1.6-0.7s1-0.8,1.4-1.4c0.4-0.6,0.6-1.3,0.6-2.3c0-0.2,0-0.7,0-1.5c0-0.9,0-1.9,0-3.2s0-2.7,0-4.3s0-3.2,0-4.9
		s0-3.4,0-5s0-3.2,0-4.5c0-1.4,0-2.5,0-3.5s0-1.7,0-2c0-0.5,0-1,0-1.5s-0.1-0.9-0.3-1.3c-0.2-0.4-0.4-0.7-0.8-0.9
		c-0.3-0.2-0.8-0.4-1.5-0.4c-1.1,0-2.1,0.2-2.9,0.5c-0.9,0.3-1.7,0.7-2.4,1.2c-0.7,0.5-1.3,1-1.8,1.6s-1,1.1-1.3,1.7
		c-0.4,0.5-0.6,1-0.9,1.5c-0.2,0.4-0.3,0.7-0.4,0.9c-0.1,0.3-0.3,0.5-0.6,0.4c-0.3,0-0.4-0.2-0.4-0.5v-8.3c0-0.4,0.2-0.6,0.6-0.6h35
		C336.6,25.2,336.8,25.4,336.8,25.7z"/>
	<path class="st1" d="M353.2,37.9c2.1,0,4,0.4,5.7,1.1c1.7,0.7,3.2,1.7,4.5,3c1.2,1.3,2.2,2.8,2.9,4.5c0.7,1.7,1.1,3.6,1.1,5.5
		c0,2-0.4,3.8-1.1,5.6c-0.8,1.7-1.8,3.3-3.1,4.6c-1.3,1.3-2.9,2.3-4.7,3.1s-3.7,1.1-5.8,1.1c-2.1,0-4-0.4-5.7-1.1s-3.2-1.7-4.5-3
		s-2.2-2.8-2.9-4.5c-0.7-1.7-1.1-3.6-1.1-5.5c0-2,0.4-3.8,1.1-5.6c0.8-1.8,1.8-3.3,3.1-4.6c1.3-1.3,2.9-2.3,4.7-3.1
		C349.2,38.3,351.2,37.9,353.2,37.9z M352.9,64.8c1,0,1.8-0.3,2.5-1s1.3-1.6,1.8-2.7c0.5-1.2,0.8-2.5,1.1-4s0.4-3.2,0.4-4.9
		s-0.1-3.4-0.4-4.9s-0.6-2.9-1.1-4s-1.1-2.1-1.8-2.7s-1.5-1-2.5-1s-1.8,0.3-2.5,1s-1.3,1.6-1.8,2.7c-0.5,1.2-0.8,2.5-1.1,4
		c-0.2,1.5-0.3,3.2-0.3,4.9s0.1,3.4,0.3,4.9c0.2,1.5,0.6,2.9,1.1,4c0.5,1.2,1.1,2.1,1.8,2.7C351.1,64.4,352,64.8,352.9,64.8z"/>
	<path class="st1" d="M411.8,38.8c0.1,0.1,0.1,0.2,0.2,0.3s0,0.2-0.1,0.3s-0.2,0.2-0.3,0.2c-0.5,0.1-1,0.3-1.4,0.5s-0.8,0.5-1.1,0.8
		c-0.3,0.3-0.6,0.7-0.9,1.1c-0.3,0.4-0.6,0.9-0.9,1.5c-0.1,0.2-0.4,0.7-0.7,1.5c-0.4,0.8-0.8,1.7-1.3,2.8s-1,2.3-1.6,3.7
		c-0.6,1.3-1.2,2.7-1.8,4c-1.4,3.2-3,6.7-4.8,10.6c-0.1,0.2-0.2,0.3-0.4,0.3c-0.2,0-0.3-0.1-0.4-0.2c-1.1-2.6-2.1-4.9-3-7
		c-0.4-0.9-0.8-1.8-1.1-2.6c-0.4-0.9-0.7-1.6-1-2.4s-0.6-1.3-0.8-1.8c-0.2-0.5-0.3-0.8-0.4-0.9c-0.1-0.2-0.3-0.2-0.4,0
		c-0.1,0.1-0.2,0.4-0.4,0.8s-0.5,1-0.8,1.7s-0.7,1.5-1,2.3c-0.4,0.9-0.8,1.7-1.2,2.6c-0.9,2.1-2,4.4-3.1,7c-0.1,0.2-0.2,0.3-0.4,0.3
		s-0.3-0.1-0.4-0.2c-1.7-3.9-3.2-7.4-4.6-10.6c-0.6-1.4-1.2-2.7-1.7-4c-0.6-1.3-1.1-2.5-1.6-3.7c-0.5-1.1-0.9-2-1.2-2.8
		c-0.3-0.8-0.6-1.3-0.7-1.5c-0.3-0.6-0.6-1.1-0.9-1.5s-0.6-0.8-0.9-1.1s-0.7-0.6-1.1-0.8s-0.9-0.4-1.4-0.5c-0.2,0-0.3-0.1-0.3-0.2
		c-0.1-0.1-0.1-0.2-0.1-0.3s0.1-0.2,0.1-0.3s0.2-0.1,0.4-0.1h15.8c0.1,0,0.3,0,0.4,0.1s0.2,0.2,0.2,0.3s0,0.2-0.1,0.3
		s-0.2,0.2-0.4,0.2c-0.3,0.1-0.7,0.2-1.1,0.3s-0.8,0.3-1.2,0.6c-0.4,0.3-0.6,0.6-0.8,1.1s-0.1,1,0.1,1.8c0.1,0.3,0.3,0.8,0.5,1.5
		s0.5,1.4,0.9,2.2c0.3,0.8,0.7,1.7,1,2.5s0.7,1.7,1,2.4s0.6,1.3,0.8,1.8s0.3,0.8,0.4,0.8c0.1,0.3,0.3,0.3,0.4,0c0,0,0.1-0.3,0.3-0.7
		c0.2-0.4,0.4-1,0.7-1.7c0.3-0.7,0.6-1.4,1-2.3c0.4-0.9,0.8-1.7,1.2-2.7c0.4-0.9,0.8-1.8,1.2-2.7s0.7-1.7,1.1-2.4
		c0.3-0.7,0.6-1.3,0.8-1.8s0.3-0.7,0.4-0.8c0.1-0.2,0.3-0.3,0.5-0.4s0.4,0.1,0.5,0.4c0.1,0.1,0.2,0.4,0.4,0.9
		c0.2,0.5,0.4,1.1,0.7,1.8c0.3,0.7,0.6,1.5,0.9,2.4s0.7,1.8,1,2.7c0.4,0.9,0.7,1.8,1,2.6s0.6,1.6,0.9,2.3s0.5,1.2,0.6,1.6
		c0.2,0.4,0.3,0.6,0.3,0.7c0.1,0.3,0.3,0.3,0.4,0c0.1-0.1,0.2-0.5,0.4-1c0.2-0.5,0.5-1.2,0.8-1.9s0.6-1.5,0.9-2.4
		c0.3-0.8,0.6-1.7,0.9-2.5s0.5-1.5,0.8-2.1c0.2-0.6,0.4-1.1,0.5-1.4c0.2-0.7,0.2-1.3,0.1-1.8c-0.2-0.5-0.4-0.8-0.7-1.1
		s-0.7-0.5-1.1-0.6s-0.8-0.2-1.1-0.3c-0.2,0-0.3-0.1-0.4-0.2c-0.1-0.1-0.1-0.2-0.1-0.3s0.1-0.2,0.2-0.3s0.2-0.1,0.4-0.1h9.7
		C411.6,38.7,411.7,38.7,411.8,38.8z"/>
	<path class="st1" d="M421.3,49.8c-0.3,0-0.5,0.2-0.5,0.5c0,2,0.2,3.8,0.5,5.2s0.9,2.7,1.6,3.6c0.7,0.9,1.5,1.6,2.6,2.1
		c1,0.4,2.2,0.7,3.6,0.7c1,0,2-0.1,2.8-0.3s1.5-0.5,2.1-0.8s1.1-0.6,1.5-0.8s0.7-0.4,0.8-0.5c0.3-0.1,0.5-0.1,0.7,0.1
		c0.2,0.2,0.2,0.4,0,0.8c-0.1,0.1-0.2,0.4-0.4,0.7s-0.5,0.8-0.9,1.2c-0.4,0.5-0.9,0.9-1.5,1.4c-0.6,0.5-1.3,1-2.1,1.4
		c-0.8,0.4-1.8,0.8-2.8,1c-1.1,0.3-2.3,0.4-3.6,0.4c-2,0-3.8-0.3-5.4-0.9s-3-1.5-4.2-2.7s-2-2.7-2.7-4.4c-0.6-1.7-0.9-3.7-0.9-5.8
		c0-2.4,0.4-4.5,1.2-6.3c0.8-1.8,1.8-3.3,3.1-4.6c1.3-1.2,2.7-2.2,4.3-2.8c1.6-0.6,3.2-1,4.9-1c1.6,0,2.9,0.2,4.1,0.6
		c1.2,0.4,2.2,1,3.1,1.7s1.6,1.5,2.2,2.3c0.6,0.9,1,1.7,1.4,2.5c0.3,0.8,0.6,1.6,0.7,2.4c0.1,0.7,0.2,1.3,0.2,1.8
		c0,0.2-0.1,0.3-0.2,0.4s-0.3,0.1-0.5,0.1H421.3z M421,47.8c0,0.3,0.1,0.4,0.4,0.4c0.1,0,0.3,0,0.6,0c0.3,0,0.8,0,1.2,0
		c0.5,0,1,0,1.6-0.1c0.6,0,1.1,0,1.6-0.1c0.5,0,0.9,0,1.3,0s0.6,0,0.7,0c0.3,0,0.7-0.2,1-0.4c0.3-0.3,0.5-0.7,0.5-1.4
		c0-0.6-0.1-1.2-0.2-2c-0.2-0.8-0.4-1.5-0.8-2.2c-0.3-0.7-0.8-1.3-1.3-1.7s-1.2-0.7-2-0.7c-0.6,0-1.2,0.2-1.6,0.5
		c-0.5,0.3-0.9,0.8-1.2,1.3s-0.6,1.1-0.8,1.8c-0.2,0.6-0.4,1.3-0.5,1.9c-0.1,0.6-0.2,1.2-0.3,1.7C421.1,47.1,421,47.5,421,47.8z"/>
	<path class="st1" d="M458.8,37.9c0.8,0,1.5,0.1,2.1,0.3s1,0.5,1.4,0.8s0.6,0.8,0.8,1.2c0.2,0.5,0.2,1,0.2,1.5c0,1-0.3,1.7-0.9,2.2
		s-1.4,0.8-2.4,0.8c-0.8,0-1.4-0.1-1.8-0.4c-0.4-0.3-0.8-0.6-1.1-0.9c-0.3-0.3-0.6-0.6-0.9-0.9c-0.3-0.3-0.6-0.4-1-0.4
		c-0.3,0-0.7,0.1-1.1,0.3s-0.8,0.7-1.1,1.3c-0.3,0.6-0.6,1.5-0.8,2.6c-0.2,1.1-0.3,2.6-0.3,4.4v10.4c0,0.8,0.1,1.4,0.4,1.9
		s0.6,0.8,0.9,1c0.3,0.2,0.7,0.4,1,0.5s0.6,0.1,0.8,0.2c0.2,0,0.3,0.1,0.3,0.2c0.1,0.1,0.1,0.2,0.1,0.3c0,0.1-0.1,0.2-0.2,0.3
		c-0.1,0.1-0.2,0.1-0.4,0.1h-3h-0.3h-7.6h-0.3h-3c-0.2,0-0.3,0-0.4-0.1s-0.1-0.2-0.2-0.3c0-0.1,0-0.2,0.1-0.3s0.2-0.2,0.3-0.2
		c0.2,0,0.4-0.1,0.8-0.2s0.7-0.3,1-0.5c0.3-0.2,0.7-0.6,0.9-1c0.3-0.5,0.4-1.1,0.4-1.9V44.3c0-0.3-0.1-0.4-0.4-0.5
		c0,0-0.2,0-0.4-0.1s-0.5-0.1-0.9-0.2c-0.3-0.1-0.6-0.2-0.9-0.2c-0.3-0.1-0.4-0.1-0.5-0.1c-0.3-0.1-0.4-0.2-0.4-0.4s0.1-0.4,0.4-0.4
		c0.8-0.2,1.6-0.4,2.5-0.7s1.8-0.7,2.7-1s1.8-0.8,2.7-1.3c0.9-0.5,1.6-0.9,2.3-1.4c0.2-0.1,0.4-0.2,0.6-0.2s0.3,0.2,0.3,0.5v4.3
		c0.7-1.5,1.6-2.7,2.8-3.5C456,38.3,457.3,37.9,458.8,37.9z"/>
	<path class="st1" d="M465.5,63.6c0,0,0-0.3-0.1-0.9c-0.1-0.5-0.2-1.1-0.3-1.8c-0.1-0.6-0.2-1.2-0.3-1.8s-0.1-0.9-0.2-1.1
		c0-0.3,0-0.4,0.2-0.5c0.2,0,0.3,0,0.5,0.2c0,0.1,0.1,0.3,0.4,0.6c0.2,0.4,0.6,0.8,1,1.3s0.9,1.1,1.5,1.7c0.6,0.6,1.2,1.2,2,1.7
		c0.7,0.5,1.5,0.9,2.4,1.3c0.9,0.3,1.8,0.5,2.8,0.5c1.1,0,2-0.3,2.7-0.9s1-1.4,1-2.5c0-0.5-0.1-1.1-0.2-1.6s-0.4-1-0.9-1.6
		c-0.5-0.5-1.1-1-2-1.5s-2-1-3.5-1.5c-1.3-0.5-2.4-1-3.3-1.7c-0.9-0.6-1.6-1.4-2.2-2.1c-0.6-0.8-1-1.6-1.2-2.6
		c-0.2-0.9-0.4-1.9-0.4-2.9c0-0.8,0.1-1.6,0.4-2.6c0.3-0.9,0.8-1.8,1.5-2.6s1.7-1.5,3-2s2.9-0.8,4.8-0.8c1.2,0,2.4,0.1,3.5,0.3
		s2,0.4,2.8,0.7s1.4,0.5,1.9,0.7s0.7,0.3,0.8,0.4c0.1,0.1,0.2,0.1,0.2,0.2s0,0.1,0.1,0.2c0,0,0,0.3,0.1,0.8s0.2,1.1,0.3,1.7
		c0.1,0.6,0.2,1.2,0.3,1.7c0.1,0.5,0.1,0.8,0.1,0.8c0,0.2,0,0.3-0.2,0.4c-0.2,0.1-0.3,0-0.5-0.2c-0.3-0.4-0.7-0.9-1.3-1.6
		s-1.3-1.4-2.2-2c-0.9-0.7-1.8-1.2-2.9-1.7s-2.2-0.7-3.3-0.7c-1.2,0-2.1,0.3-2.7,1s-0.9,1.5-0.9,2.4c0,0.5,0.1,0.9,0.2,1.4
		s0.4,0.9,0.9,1.3c0.5,0.4,1.1,0.8,2,1.3c0.9,0.4,2,0.9,3.5,1.3c2.9,0.9,5.1,2.1,6.6,3.7c1.5,1.5,2.2,3.5,2.2,6
		c0,1.2-0.2,2.4-0.6,3.4s-1.1,2-1.9,2.7c-0.9,0.8-2,1.4-3.4,1.8s-3,0.7-4.9,0.7c-1.6,0-3-0.1-4.2-0.3c-1.2-0.2-2.3-0.5-3.1-0.8
		c-0.8-0.3-1.5-0.5-2-0.8c-0.5-0.2-0.8-0.4-0.8-0.5c0,0-0.1-0.1-0.1-0.2C465.6,63.8,465.6,63.7,465.5,63.6z"/>
</g>
<g>
	<path class="st1" d="M53.3,85.5c-3.2-2.1-6-4.7-8.3-7.7c-2.4-3-4.3-6.4-5.7-10.1c-1.4-3.7-2.3-7.3-2.5-11h-1.7
		c-0.4,0-0.6,0.1-0.6,0.3c-0.8,1.3-1.5,2.8-2.1,4.2c-0.5,1.5-1.1,2.9-1.5,4.4c-0.5,1.5-1,2.9-1.5,4.4s-1.1,2.9-1.8,4.3
		c-0.5,0.9-1,0.9-1.6,0c-0.5-0.8-0.9-1.8-1-3.1c-0.3-3-0.3-5.7,0.1-8.2c0.3-2.4,1.1-4.9,2.2-7.3c-0.4-0.1-0.9-0.3-1.3-0.4
		s-0.9-0.3-1.3-0.4c-0.4-0.1-0.9-0.3-1.2-0.6c-0.6-0.4-0.9-0.7-1.2-1.2c0.2-0.4,0.6-0.6,1-0.7c0.4-0.1,0.9-0.2,1.3-0.3
		c0.6-0.1,1.3-0.2,1.9-0.3s1.3-0.2,2-0.3c0.5,0,0.8-0.2,1-0.7c0.4-0.7,1-1.7,1.8-2.9c0.7-1.2,1.6-2.6,2.5-4c0.9-1.4,2-2.8,3.1-4.2
		c1.1-1.4,2.3-2.6,3.5-3.6c1.2-1,2.4-1.7,3.7-2.1c1.2-0.4,2.5-0.3,3.7,0.2c1,0.5,1.7,1.1,2.2,1.8s0.4,1.3-0.2,1.7
		c-0.7,0.4-1.5,0.8-2.3,1.1s-1.5,0.8-2.1,1.3c-1.3,1.3-2.4,2.8-3.4,4.5c-0.9,1.7-2,3.2-3.1,4.6c1.4-0.2,3.1-0.8,5.1-1.7
		c2-0.9,4.1-2,6.3-3.4c2.2-1.3,4.3-2.8,6.3-4.3s3.7-3.1,5-4.5c1.3-1.4,2.2-2.7,2.6-3.9c0.4-1.2,0.1-2-0.9-2.5S61.2,28,60,27.8
		s-2.5-0.3-3.8-0.3s-2.6,0.1-4,0.3c-1.3,0.2-2.6,0.4-3.8,0.7c-1.1,0.2-2.6,0.7-4.2,1.3c-1.7,0.6-3.3,1.4-5,2.2
		c-1.6,0.8-3.2,1.8-4.6,2.8c-1.4,1-2.4,2-3,2.9c-0.7-1.3-0.9-2.6-0.6-3.8c0.3-1.2,1-2.3,1.9-3.3c0.9-1,2.1-2,3.5-2.8
		c1.4-0.8,2.8-1.6,4.3-2.2c1.1-0.4,2.1-0.8,3.1-1.2H21.7c-4.5,0-8.3,3.7-8.3,8.3v47.1c0,4.5,3.7,8.3,8.3,8.3h36.8
		C56.7,87.4,54.9,86.6,53.3,85.5z"/>
	<path class="st1" d="M67.2,26.2C68,27,68.6,28,69,29c0.4,1,0.6,2.1,0.6,3.2c0,1.1-0.2,2.1-0.6,3.1c-1.1,2.5-2.6,4.8-4.4,6.8
		c-1.8,2-3.8,3.9-5.9,5.5c-2.2,1.6-4.5,3-7,4.2s-4.9,2.2-7.4,2.9c-0.1,0.1-0.3,0.2-0.5,0.2s-0.3,0.1-0.5,0.2c-0.1,0-0.1,0-0.1,0.1
		c0,0.1,0,0.2,0,0.3c0,1.6,0.3,3.5,0.8,5.4c0.5,2,1.2,3.9,2.1,5.9c0.9,1.9,1.9,3.8,3,5.5c1.1,1.7,2.2,3.1,3.4,4.3
		c1.7,1.6,3.6,3,5.8,4.2c2.1,1.1,4.4,1.9,6.7,2.5c2.3,0.5,4.7,0.7,7.1,0.6c1.5-0.1,2.9-0.3,4.2-0.7c0.5-1.1,0.8-2.2,0.8-3.4V32.7
		c0-4.5-3.7-8.3-8.3-8.3h-4C65.7,24.9,66.5,25.5,67.2,26.2z"/>
</g>
<path class="st2" d="M69.8,92.4H20.7C14.2,92.4,9,87.2,9,80.8V31.6c0-6.4,5.2-11.7,11.7-11.7h49.2c6.4,0,11.7,5.2,11.7,11.7v49.2
	C81.5,87.2,76.3,92.4,69.8,92.4z"/>
</svg>
